<svg width="1480" height="365" viewBox="0 0 1480 365" fill="none" xmlns="http://www.w3.org/2000/svg">
<path d="M29.572 185.908L62.8 268.836L54.138 267.274L85.236 185.908H103.128L57.262 293.828L11.538 185.908H29.572ZM98.2212 258.612C98.2212 252.648 99.6412 247.299 102.481 242.566C105.321 237.738 109.25 233.951 114.267 231.206C119.285 228.461 125.012 227.088 131.449 227.088C137.981 227.088 143.709 228.461 148.631 231.206C153.554 233.951 157.341 237.738 159.991 242.566C162.737 247.299 164.109 252.648 164.109 258.612C164.109 264.576 162.737 269.972 159.991 274.8C157.341 279.628 153.554 283.462 148.631 286.302C143.709 289.047 137.934 290.42 131.307 290.42C124.965 290.42 119.285 289.142 114.267 286.586C109.345 284.03 105.416 280.385 102.481 275.652C99.6412 270.824 98.2212 265.144 98.2212 258.612ZM112.989 258.754C112.989 262.446 113.794 265.807 115.403 268.836C117.013 271.771 119.19 274.137 121.935 275.936C124.681 277.64 127.757 278.492 131.165 278.492C134.668 278.492 137.792 277.64 140.537 275.936C143.283 274.137 145.413 271.771 146.927 268.836C148.537 265.807 149.341 262.446 149.341 258.754C149.341 255.062 148.537 251.749 146.927 248.814C145.413 245.879 143.283 243.513 140.537 241.714C137.792 239.915 134.668 239.016 131.165 239.016C127.663 239.016 124.539 239.915 121.793 241.714C119.048 243.513 116.871 245.927 115.261 248.956C113.747 251.891 112.989 255.157 112.989 258.754ZM230.112 283.462C227.461 285.639 224.242 287.343 220.456 288.574C216.764 289.805 213.024 290.42 209.238 290.42C202.706 290.42 196.931 289.142 191.914 286.586C186.991 284.03 183.157 280.433 180.412 275.794C177.666 271.155 176.294 265.617 176.294 259.18C176.294 252.837 177.761 247.347 180.696 242.708C183.63 237.975 187.512 234.377 192.34 231.916C197.168 229.36 202.28 228.082 207.675 228.082C212.598 228.082 216.953 228.745 220.74 230.07C224.526 231.395 227.792 233.241 230.538 235.608L223.296 245.122C221.686 243.797 219.651 242.613 217.19 241.572C214.823 240.531 212.078 240.01 208.954 240.01C205.64 240.01 202.611 240.862 199.866 242.566C197.12 244.175 194.943 246.447 193.334 249.382C191.724 252.222 190.92 255.488 190.92 259.18C190.92 262.683 191.724 265.949 193.334 268.978C195.038 271.913 197.357 274.232 200.292 275.936C203.226 277.64 206.587 278.492 210.374 278.492C212.835 278.492 215.107 278.161 217.19 277.498C219.272 276.741 221.118 275.699 222.728 274.374L230.112 283.462ZM271.709 290.42C266.123 290.42 261.059 289.284 256.515 287.012C251.971 284.645 248.373 281.143 245.723 276.504C243.072 271.865 241.747 266.138 241.747 259.322C241.747 252.601 243.119 246.826 245.865 241.998C248.705 237.17 252.397 233.478 256.941 230.922C261.579 228.271 266.597 226.946 271.993 226.946C277.673 226.946 282.311 228.177 285.909 230.638C289.601 233.005 292.488 235.797 294.571 239.016L293.577 241.288L294.997 229.502H308.487V289H293.861V274.09L295.423 277.64C295.044 278.397 294.239 279.486 293.009 280.906C291.778 282.231 290.121 283.651 288.039 285.166C286.051 286.681 283.684 287.959 280.939 289C278.288 289.947 275.211 290.42 271.709 290.42ZM275.685 278.492C278.809 278.492 281.601 277.924 284.063 276.788C286.524 275.652 288.607 274.043 290.311 271.96C292.015 269.877 293.198 267.416 293.861 264.576V252.222C293.103 249.571 291.825 247.299 290.027 245.406C288.228 243.418 286.051 241.856 283.495 240.72C281.033 239.584 278.288 239.016 275.259 239.016C271.851 239.016 268.727 239.868 265.887 241.572C263.047 243.181 260.775 245.453 259.071 248.388C257.367 251.323 256.515 254.731 256.515 258.612C256.515 262.304 257.367 265.665 259.071 268.694C260.869 271.723 263.236 274.137 266.171 275.936C269.105 277.64 272.277 278.492 275.685 278.492ZM367.814 290.42C362.418 290.42 357.684 289.331 353.614 287.154C349.638 284.882 346.419 282.042 343.958 278.634L345.52 274.516V289H330.894V178.666H345.378V242.424L345.094 237.17C347.366 234.141 350.679 231.679 355.034 229.786C359.388 227.893 364.264 226.946 369.66 226.946C374.961 226.946 379.789 228.224 384.144 230.78C388.593 233.336 392.096 236.981 394.652 241.714C397.302 246.353 398.628 251.891 398.628 258.328C398.628 264.955 397.208 270.682 394.368 275.51C391.528 280.338 387.741 284.03 383.008 286.586C378.369 289.142 373.304 290.42 367.814 290.42ZM364.69 278.066C368.287 278.066 371.506 277.214 374.346 275.51C377.28 273.806 379.6 271.439 381.304 268.41C383.008 265.381 383.86 261.973 383.86 258.186C383.86 254.494 383.008 251.181 381.304 248.246C379.6 245.311 377.28 242.992 374.346 241.288C371.506 239.489 368.287 238.59 364.69 238.59C361.566 238.59 358.678 239.158 356.028 240.294C353.377 241.43 351.152 242.992 349.354 244.98C347.555 246.968 346.277 249.287 345.52 251.938V264.576C346.277 267.227 347.555 269.593 349.354 271.676C351.152 273.664 353.33 275.226 355.886 276.362C358.536 277.498 361.471 278.066 364.69 278.066Z" fill="#EBEBEB"/>
<path d="M413.898 85.5039C425.695 86.487 436.018 87.0768 444.865 87.2734C453.91 87.4701 461.577 87.5684 467.869 87.5684C475.144 87.5684 481.436 87.3717 486.744 86.9785C492.249 86.3887 499.426 85.6022 508.273 84.6191C515.745 83.6361 525.379 82.3581 537.176 80.7852C548.973 79.0156 563.326 76.7546 580.234 74.002C578.072 77.3444 576.204 80.8835 574.631 84.6191C573.255 88.1582 572.075 91.4023 571.092 94.3516C570.109 97.8906 569.224 101.331 568.438 104.674C567.848 108.41 567.16 113.03 566.373 118.535C565.587 123.254 564.604 129.251 563.424 136.525C562.441 143.604 561.163 152.058 559.59 161.889C553.691 146.553 547.695 134.756 541.6 126.498C535.701 118.24 530.196 112.145 525.084 108.213C519.186 103.691 513.582 101.135 508.273 100.545C500.605 100.545 494.314 102.02 489.398 104.969C484.483 107.918 480.452 111.752 477.307 116.471C474.357 120.993 472.096 126.007 470.523 131.512C468.951 136.82 467.869 142.031 467.279 147.143C466.689 152.058 466.296 156.482 466.1 160.414C465.903 164.15 465.706 166.706 465.51 168.082C472.391 167.689 478.191 167.197 482.91 166.607C487.629 166.018 491.365 165.428 494.117 164.838C497.46 164.051 500.114 163.265 502.08 162.479C505.029 160.906 507.979 159.038 510.928 156.875C513.484 154.909 516.138 152.549 518.891 149.797C521.84 147.044 524.396 143.702 526.559 139.77C525.379 146.848 524.298 152.746 523.314 157.465C522.528 162.184 521.84 165.919 521.25 168.672C520.464 172.014 519.972 174.57 519.775 176.34C519.382 178.109 518.891 180.567 518.301 183.713C517.711 186.465 517.023 190.005 516.236 194.33C515.45 198.656 514.565 204.062 513.582 210.551C511.223 206.422 508.765 203.079 506.209 200.523C503.653 197.771 501.294 195.608 499.131 194.035C496.575 192.266 494.117 190.889 491.758 189.906C489.202 189.12 486.449 188.333 483.5 187.547C480.944 186.957 477.896 186.367 474.357 185.777C471.015 184.991 467.378 184.303 463.445 183.713C463.839 194.33 464.428 203.473 465.215 211.141C466.001 218.612 466.689 224.904 467.279 230.016C468.066 235.914 468.852 240.829 469.639 244.762C470.622 248.694 472.195 252.921 474.357 257.443C476.127 261.376 478.585 265.898 481.73 271.01C485.073 275.925 489.3 281.234 494.412 286.936C490.48 285.952 486.351 285.264 482.025 284.871C477.7 284.478 473.866 284.183 470.523 283.986C466.395 283.79 462.462 283.79 458.727 283.986C454.794 284.183 450.469 284.576 445.75 285.166C441.818 285.559 437.296 286.149 432.184 286.936C427.072 287.722 421.665 288.607 415.963 289.59C419.305 286.247 422.058 282.905 424.221 279.562C426.383 276.22 427.956 273.271 428.939 270.715C430.119 267.766 430.906 264.915 431.299 262.162C431.495 259.803 431.594 254.691 431.594 246.826C431.594 238.765 431.495 229.426 431.299 218.809C431.102 207.995 430.807 196.591 430.414 184.598C430.021 172.604 429.628 161.397 429.234 150.977C428.841 140.359 428.35 131.315 427.76 123.844C427.367 116.372 426.875 111.85 426.285 110.277C425.499 108.311 424.614 106.05 423.631 103.494C422.058 99.3652 418.814 93.3685 413.898 85.5039ZM583.302 73.707C589.593 74.6901 595.295 75.5749 600.407 76.3613C605.519 76.9512 609.943 77.4427 613.679 77.8359C618.004 78.4258 621.838 78.9173 625.18 79.3105C629.309 79.9004 635.503 79.2122 643.761 77.2461C652.018 75.0833 661.063 73.1172 670.893 71.3477C680.921 69.3815 691.145 68.3001 701.565 68.1035C711.986 67.7103 721.522 69.5781 730.173 73.707C738.824 77.8359 745.902 81.9648 751.407 86.0938C756.912 90.2227 761.238 94.6465 764.384 99.3652C767.726 103.887 770.085 108.704 771.462 113.816C772.838 118.928 773.624 124.532 773.821 130.627C773.624 139.671 771.462 148.421 767.333 156.875C765.563 160.414 763.204 164.15 760.255 168.082C757.502 171.818 754.061 175.455 749.932 178.994C745.804 182.533 740.888 185.876 735.186 189.021C729.681 192.167 723.193 194.92 715.721 197.279C722.996 199.442 728.993 201.998 733.712 204.947C738.627 207.896 742.559 210.649 745.509 213.205C749.048 216.351 751.702 219.398 753.471 222.348C755.634 226.477 757.109 230.016 757.895 232.965C758.682 235.914 759.173 238.765 759.37 241.518C759.763 244.074 760.255 246.728 760.845 249.48C761.434 252.233 762.712 255.379 764.679 258.918C766.251 261.671 768.119 264.521 770.282 267.471C772.248 270.027 774.509 272.779 777.065 275.729C779.818 278.678 783.16 281.529 787.093 284.281C781.587 284.478 776.475 284.576 771.757 284.576C767.235 284.576 763.302 284.576 759.96 284.576C756.027 284.576 752.292 284.478 748.753 284.281C745.214 284.085 740.79 283.986 735.481 283.986C730.959 283.986 725.159 283.986 718.081 283.986C711.199 283.986 702.843 284.085 693.012 284.281C697.338 280.939 700.877 277.596 703.63 274.254C706.382 270.911 708.545 267.864 710.118 265.111C711.887 261.965 713.165 258.918 713.952 255.969C714.935 250.66 715.033 245.155 714.247 239.453C713.657 234.538 712.084 229.131 709.528 223.232C706.972 217.137 702.843 211.042 697.141 204.947C691.44 205.93 686.623 206.717 682.69 207.307C678.955 207.7 675.71 208.093 672.958 208.486C669.812 208.88 667.256 209.174 665.29 209.371C663.52 209.568 661.554 209.764 659.391 209.961C657.622 210.158 655.656 210.452 653.493 210.846C651.527 211.042 649.659 211.337 647.889 211.73C647.496 220.185 647.496 227.558 647.889 233.85C648.283 239.945 648.774 245.057 649.364 249.186C650.151 254.101 651.035 258.328 652.018 261.867C653.001 265.406 654.378 268.847 656.147 272.189C657.524 274.942 659.293 277.891 661.456 281.037C663.619 283.986 666.076 286.444 668.829 288.41C663.717 288.41 658.802 288.41 654.083 288.41C649.561 288.41 645.432 288.312 641.696 288.115C637.371 288.115 633.242 288.017 629.309 287.82C625.377 287.624 620.953 287.525 616.038 287.525C611.909 287.525 606.994 287.525 601.292 287.525C595.787 287.525 589.79 287.624 583.302 287.82C588.414 282.512 592.444 277.99 595.393 274.254C598.343 270.518 600.604 267.372 602.177 264.816C603.946 262.064 605.027 259.704 605.421 257.738C605.814 254.592 606.109 248.989 606.305 240.928C606.699 232.67 606.994 223.232 607.19 212.615C607.387 201.998 607.485 190.889 607.485 179.289C607.485 167.689 607.387 156.875 607.19 146.848C606.994 136.624 606.797 127.874 606.6 120.6C606.404 113.325 606.207 108.704 606.011 106.738C605.421 103.199 604.143 99.6602 602.177 96.1211C600.604 92.9753 598.343 89.4362 595.393 85.5039C592.444 81.5716 588.414 77.6393 583.302 73.707ZM694.782 177.52C696.748 176.34 698.419 175.16 699.796 173.98C701.172 172.801 702.352 170.933 703.335 168.377C704.318 165.624 705.104 161.79 705.694 156.875C706.481 151.96 707.365 145.275 708.348 136.82C709.135 128.366 708.545 121.386 706.579 115.881C704.809 110.376 702.352 106.05 699.206 102.904C696.257 99.5618 692.914 97.3008 689.179 96.1211C685.639 94.7448 682.494 94.0566 679.741 94.0566C674.236 94.0566 668.829 95.7279 663.52 99.0703C658.212 102.413 654.181 106.935 651.429 112.637C650.445 115.193 649.561 119.42 648.774 125.318C648.184 130.43 647.791 137.508 647.595 146.553C647.398 155.597 647.693 167.492 648.479 182.238C655.951 183.418 662.537 183.91 668.239 183.713C673.941 183.32 678.758 182.632 682.69 181.648C687.409 180.665 691.44 179.289 694.782 177.52ZM769.102 87.5684C782.865 87.9616 794.269 88.2565 803.313 88.4531C812.554 88.4531 820.026 88.4531 825.727 88.4531H841.358H929.245C929.638 92.3854 929.933 96.2194 930.13 99.9551C930.523 103.494 930.72 106.64 930.72 109.393C930.72 112.735 930.621 115.783 930.425 118.535C930.228 121.288 929.933 124.237 929.54 127.383C929.147 130.135 928.753 133.085 928.36 136.23C927.967 139.376 927.279 142.62 926.296 145.963C923.543 135.346 919.807 127.285 915.089 121.779C910.567 116.274 905.946 112.243 901.227 109.688C895.722 106.738 889.922 105.165 883.827 104.969C875.766 105.362 869.474 106.05 864.952 107.033C860.43 108.016 856.891 109.393 854.335 111.162C851.779 112.932 849.813 114.996 848.436 117.355C847.257 119.518 845.979 121.976 844.602 124.729C843.423 127.088 842.341 130.725 841.358 135.641C840.375 139.77 839.392 145.373 838.409 152.451C837.623 159.529 836.738 168.672 835.755 179.879C841.063 178.306 845.291 176.831 848.436 175.455C851.779 174.079 854.433 172.899 856.399 171.916C858.562 170.736 860.135 169.655 861.118 168.672C861.904 167.492 863.084 165.329 864.657 162.184C865.837 159.431 867.41 155.695 869.376 150.977C871.539 146.258 874.095 139.77 877.044 131.512C877.437 140.556 877.634 148.126 877.634 154.221C877.634 160.119 877.732 164.936 877.929 168.672C877.929 172.997 878.027 176.438 878.223 178.994V190.201C878.223 194.33 878.223 199.934 878.223 207.012C878.42 213.893 878.715 222.643 879.108 233.26C876.749 225.985 874.586 220.283 872.62 216.154C870.85 211.829 869.277 208.585 867.901 206.422C866.328 203.866 864.952 202.096 863.772 201.113C862.396 200.72 860.528 200.327 858.169 199.934C856.006 199.737 853.253 199.639 849.911 199.639C846.765 199.639 842.735 200.13 837.819 201.113C837.229 211.927 837.131 220.676 837.524 227.361C838.114 233.85 838.901 238.863 839.884 242.402C840.867 246.531 842.046 249.48 843.423 251.25C845.192 253.02 848.731 254.494 854.04 255.674C859.348 256.657 865.345 257.05 872.03 256.854C878.912 256.46 885.891 255.281 892.97 253.314C900.048 251.348 906.339 248.104 911.845 243.582C915.973 239.846 920.397 235.128 925.116 229.426C929.048 224.51 933.374 218.317 938.093 210.846C943.008 203.374 947.825 194.33 952.544 183.713C951.757 192.561 951.167 199.934 950.774 205.832C950.578 211.534 950.283 216.154 949.889 219.693C949.496 223.822 949.201 226.968 949.005 229.131C949.005 231.49 948.71 234.833 948.12 239.158C947.727 242.894 947.039 248.006 946.055 254.494C945.269 260.786 944.188 268.847 942.811 278.678C933.57 278.874 924.821 279.071 916.563 279.268C908.305 279.268 901.031 279.366 894.739 279.562C887.268 279.759 880.386 279.956 874.095 280.152C867.606 280.152 860.43 280.447 852.565 281.037C845.684 281.43 837.524 282.02 828.087 282.807C818.846 283.593 808.622 284.674 797.415 286.051C798.398 272.681 799.086 260.098 799.479 248.301C800.069 236.307 800.462 225.788 800.659 216.744C800.856 206.127 800.856 196.296 800.659 187.252C801.642 164.641 801.249 146.356 799.479 132.396C797.71 118.437 795.645 109.491 793.286 105.559C792.106 104.182 790.435 102.511 788.272 100.545C786.503 98.972 784.045 97.1042 780.899 94.9414C777.753 92.7786 773.821 90.321 769.102 87.5684ZM1152.8 73.1172C1150.04 79.4089 1147.59 84.9141 1145.42 89.6328C1143.26 94.3516 1141.39 98.3822 1139.82 101.725C1138.05 105.46 1136.58 108.803 1135.4 111.752C1134.41 113.915 1133.13 116.864 1131.56 120.6C1129.99 123.942 1128.02 128.366 1125.66 133.871C1123.5 139.18 1120.65 146.061 1117.11 154.516C1115.34 147.241 1113.18 140.851 1110.62 135.346C1108.07 129.84 1105.31 125.023 1102.36 120.895C1099.41 116.766 1096.27 113.423 1092.93 110.867C1089.78 108.115 1086.63 105.854 1083.49 104.084C1076.21 100.152 1068.55 97.9889 1060.49 97.5957C1049.87 98.1855 1041.51 99.9551 1035.42 102.904C1029.52 105.657 1025.19 108.901 1022.44 112.637C1019.69 116.176 1018.21 119.911 1018.02 123.844C1017.82 127.579 1018.31 130.725 1019.49 133.281C1020.47 135.641 1023.91 138.393 1029.81 141.539C1035.91 144.685 1043.18 148.322 1051.64 152.451C1060.29 156.383 1069.53 160.906 1079.36 166.018C1089.19 170.933 1098.24 176.438 1106.49 182.533C1114.95 188.432 1122.03 194.92 1127.73 201.998C1133.63 208.88 1136.87 216.253 1137.46 224.117C1138.05 234.145 1137.95 243.189 1137.16 251.25C1136.38 259.311 1133.63 266.193 1128.91 271.895C1124.19 277.596 1116.82 282.118 1106.79 285.461C1096.96 288.803 1083.29 290.868 1065.79 291.654C1047.71 292.441 1032.86 291.458 1021.26 288.705C1009.66 285.952 1000.22 282.217 992.948 277.498C985.87 272.779 980.561 267.569 977.022 261.867C973.68 256.165 971.222 250.758 969.649 245.646C968.076 240.338 966.995 235.816 966.405 232.08C965.815 228.148 964.832 225.788 963.456 225.002C961.883 224.019 960.31 223.134 958.737 222.348C957.361 221.561 955.886 220.873 954.313 220.283C952.74 219.497 951.167 218.809 949.595 218.219L1035.42 204.357C1030.5 208.29 1026.67 211.927 1023.91 215.27C1021.36 218.612 1019.39 221.561 1018.02 224.117C1016.44 227.066 1015.36 229.819 1014.77 232.375C1014.38 235.128 1015.26 238.568 1017.43 242.697C1019.59 246.826 1022.54 250.857 1026.27 254.789C1030.21 258.525 1034.73 261.671 1039.84 264.227C1044.95 266.783 1050.26 267.864 1055.77 267.471C1062.65 266.881 1068.25 265.21 1072.58 262.457C1076.9 259.508 1080.15 255.87 1082.31 251.545C1084.67 247.219 1086.05 242.501 1086.44 237.389C1086.83 232.277 1086.34 227.263 1084.96 222.348C1083.78 217.236 1081.82 212.517 1079.07 208.191C1076.31 203.669 1073.07 199.934 1069.33 196.984C1065.99 194.625 1060.78 192.364 1053.7 190.201C1046.82 188.038 1039.05 185.679 1030.4 183.123C1021.95 180.567 1013.2 177.618 1004.16 174.275C995.307 170.933 987.246 166.804 979.971 161.889C972.893 156.973 967.192 151.173 962.866 144.488C958.737 137.803 957.164 129.742 958.147 120.305C958.934 112.243 961.49 105.559 965.815 100.25C970.337 94.7448 975.941 90.4193 982.626 87.2734C989.507 83.931 997.077 81.4733 1005.33 79.9004C1013.79 78.3275 1022.34 77.4427 1030.99 77.2461C1039.84 76.8529 1048.49 76.9512 1056.95 77.541C1065.6 78.1309 1073.36 78.819 1080.24 79.6055C1087.13 80.3919 1092.93 81.1784 1097.65 81.9648C1102.56 82.5547 1105.61 82.9479 1106.79 83.1445C1111.9 83.5378 1117.01 83.4395 1122.12 82.8496C1126.65 82.4564 1131.56 81.5716 1136.87 80.1953C1142.38 78.6224 1147.68 76.263 1152.8 73.1172ZM1142.18 79.6055C1149.06 80.3919 1154.86 80.9818 1159.58 81.375C1164.3 81.5716 1168.03 81.7682 1170.79 81.9648C1174.13 82.1615 1176.78 82.2598 1178.75 82.2598C1182.09 82.2598 1185.93 82.1615 1190.25 81.9648C1193.99 81.7682 1198.31 81.4733 1203.23 81.0801C1208.34 80.4902 1213.84 79.6055 1219.74 78.4258C1216.99 81.375 1214.73 84.2259 1212.96 86.9785C1211.19 89.5345 1209.81 91.8939 1208.83 94.0566C1207.65 96.416 1206.67 98.5788 1205.88 100.545C1205.1 103.101 1204.21 107.033 1203.23 112.342C1202.24 116.864 1201.16 123.254 1199.98 131.512C1199 139.77 1197.72 150.583 1196.15 163.953C1202.83 164.15 1208.63 164.248 1213.55 164.248C1218.46 164.051 1222.59 163.953 1225.94 163.953H1235.67C1238.42 163.757 1241.57 163.56 1245.11 163.363C1251 163.167 1259.95 162.577 1271.94 161.594C1272.93 152.549 1273.42 144.783 1273.42 138.295C1273.62 131.61 1273.52 126.007 1273.12 121.484C1272.73 116.372 1272.14 112.047 1271.35 108.508C1270.76 106.542 1269.88 104.182 1268.7 101.43C1267.72 99.0703 1266.34 96.2194 1264.57 92.877C1263 89.3379 1260.84 85.1107 1258.08 80.1953C1263.19 80.9818 1267.72 81.5716 1271.65 81.9648C1275.78 82.1615 1279.22 82.3581 1281.97 82.5547C1285.12 82.7513 1287.77 82.8496 1289.93 82.8496C1292.1 82.8496 1294.95 82.7513 1298.49 82.5547C1301.44 82.3581 1305.07 82.2598 1309.4 82.2598C1313.72 82.0632 1319.03 81.7682 1325.33 81.375C1323.75 84.1276 1322.38 86.9785 1321.2 89.9277C1320.02 92.877 1319.03 95.5312 1318.25 97.8906C1317.46 100.643 1316.67 103.396 1315.89 106.148C1314.9 110.277 1314.02 116.274 1313.23 124.139C1312.64 132.003 1312.05 140.753 1311.46 150.387C1311.07 160.021 1310.68 170.048 1310.28 180.469C1310.09 190.889 1309.89 200.72 1309.69 209.961C1309.69 219.202 1309.79 227.46 1309.99 234.734C1310.19 241.812 1310.58 246.826 1311.17 249.775C1311.76 253.314 1312.74 256.952 1314.12 260.688C1315.3 264.03 1316.87 267.667 1318.84 271.6C1320.8 275.335 1323.36 278.874 1326.5 282.217L1255.43 287.525C1258.38 284.773 1260.74 282.118 1262.51 279.562C1264.28 276.81 1265.65 274.451 1266.64 272.484C1267.62 270.322 1268.31 268.257 1268.7 266.291C1268.9 263.932 1269.19 259.803 1269.58 253.904C1269.98 248.989 1270.37 242.009 1270.76 232.965C1271.16 223.921 1271.55 211.927 1271.94 196.984C1269.19 196.984 1265.85 197.083 1261.92 197.279C1258.18 197.279 1254.64 197.378 1251.3 197.574C1247.37 197.771 1243.24 197.869 1238.91 197.869C1234.59 198.066 1230.07 198.262 1225.35 198.459C1221.41 198.852 1216.99 199.245 1212.08 199.639C1207.36 199.835 1202.64 200.13 1197.92 200.523C1197.53 208.781 1197.53 216.056 1197.92 222.348C1198.31 228.443 1198.9 233.653 1199.69 237.979C1200.47 243.09 1201.46 247.514 1202.64 251.25C1203.82 254.789 1205.1 258.328 1206.47 261.867C1207.65 265.013 1209.03 268.355 1210.6 271.895C1212.37 275.434 1214.14 278.579 1215.91 281.332C1212.17 280.939 1208.73 280.644 1205.59 280.447C1202.44 280.054 1199.69 279.661 1197.33 279.268C1194.58 279.071 1191.92 278.874 1189.37 278.678C1186.81 278.678 1183.76 278.579 1180.22 278.383C1177.08 278.186 1173.15 278.088 1168.43 278.088C1163.71 277.891 1158.2 277.793 1151.91 277.793C1155.65 274.057 1158.6 270.42 1160.76 266.881C1163.12 263.145 1164.79 259.803 1165.77 256.854C1166.95 253.314 1167.74 250.07 1168.13 247.121C1168.33 244.565 1168.43 239.748 1168.43 232.67C1168.62 225.592 1168.62 217.531 1168.43 208.486C1168.43 199.245 1168.33 189.611 1168.13 179.584C1167.94 169.36 1167.64 159.824 1167.25 150.977C1167.05 142.129 1166.76 134.559 1166.36 128.268C1166.17 121.779 1165.97 117.749 1165.77 116.176C1164.79 112.637 1163.31 108.803 1161.35 104.674C1159.58 101.331 1157.22 97.4974 1154.27 93.1719C1151.32 88.6497 1147.29 84.1276 1142.18 79.6055Z" fill="#FAB222"/>
</svg>
